<?xml version="1.0" encoding="UTF-8"?>
<svg xmlns="http://www.w3.org/2000/svg" version="1.1" viewBox="0 0 1576.6 643.4">
  <!-- Generator: Adobe Illustrator 29.3.1, SVG Export Plug-In . SVG Version: 2.1.0 Build 151)  -->
  <defs>
    <style>
      .st0 {
        isolation: isolate;
      }

      .st1 {
        display: none;
        mix-blend-mode: overlay;
      }

      .st2 {
        fill: #fff;
      }
    </style>
  </defs>
  <g class="st0">
    <g id="Layer_5">
      <g>
        <path class="st2" d="M1348.2,102.9c1.7-1.3,3.2-2.6,4.5-3.7,1.3-1.1,2.5-2.2,3.4-3.4.9-1.1,1.6-2.3,2.1-3.4.5-1.2.8-2.5.8-3.9,0-2.8-.8-5.1-2.5-6.8-1.7-1.7-4.3-2.6-7.9-2.6s-2.9.2-4.1.5c-1.2.3-2.3.8-3.3,1.3-1,.5-1.8,1.1-2.5,1.8-.7.7-1.3,1.3-1.8,2l-2.9-2.5c.6-.8,1.3-1.5,2.2-2.4.9-.8,2-1.6,3.2-2.4,1.2-.7,2.7-1.3,4.3-1.8,1.6-.5,3.4-.7,5.4-.7s4.7.4,6.6,1.1,3.3,1.8,4.5,3c1.2,1.3,2,2.7,2.6,4.3.5,1.6.8,3.3.8,5s-.3,3.9-1,5.5c-.7,1.6-1.6,3.1-2.7,4.5-1.1,1.4-2.4,2.7-3.8,3.8-1.4,1.2-2.8,2.3-4.3,3.4-1.9,1.5-3.7,3-5.3,4.4-1.6,1.4-2.9,2.9-4,4.4s-2,3.1-2.6,4.7c-.6,1.6-.9,3.5-.9,5.5h25.5v4.2h-30.1v-1.3c0-2.9.3-5.5.9-7.7.6-2.2,1.4-4.3,2.6-6.2,1.1-1.9,2.6-3.6,4.3-5.3,1.7-1.7,3.7-3.4,6-5.2Z"/>
        <path class="st2" d="M1371.4,102.3c0-9.1,1.5-15.9,4.5-20.5,3-4.6,7.5-6.9,13.6-6.9s10.7,2.3,13.6,6.9c2.9,4.6,4.3,11.5,4.3,20.5s-1.5,16-4.5,20.5c-3,4.5-7.5,6.8-13.4,6.8s-10.6-2.2-13.6-6.7c-3-4.5-4.5-11.3-4.5-20.6ZM1376.1,102.3c0,4.2.3,7.8.9,10.7.6,2.9,1.4,5.3,2.5,7.2s2.5,3.2,4.2,4c1.6.8,3.5,1.3,5.7,1.3,4.3,0,7.6-1.8,9.9-5.4,2.3-3.6,3.4-9.5,3.4-17.7s-.3-7.9-.9-10.9c-.6-2.9-1.5-5.3-2.6-7.2s-2.5-3.2-4.2-4c-1.6-.8-3.5-1.2-5.6-1.2s-4,.4-5.6,1.2c-1.6.8-3,2.1-4.2,4s-2,4.2-2.6,7.2c-.6,2.9-.9,6.6-.9,10.9Z"/>
        <path class="st2" d="M1426.4,102.9c1.7-1.3,3.2-2.6,4.5-3.7,1.3-1.1,2.5-2.2,3.4-3.4.9-1.1,1.6-2.3,2.1-3.4.5-1.2.8-2.5.8-3.9,0-2.8-.8-5.1-2.5-6.8-1.7-1.7-4.3-2.6-7.9-2.6s-2.9.2-4.1.5c-1.2.3-2.3.8-3.3,1.3-1,.5-1.8,1.1-2.5,1.8-.7.7-1.3,1.3-1.8,2l-2.9-2.5c.6-.8,1.3-1.5,2.2-2.4.9-.8,2-1.6,3.2-2.4,1.2-.7,2.7-1.3,4.3-1.8,1.6-.5,3.4-.7,5.4-.7s4.7.4,6.6,1.1,3.3,1.8,4.5,3c1.2,1.3,2,2.7,2.6,4.3.5,1.6.8,3.3.8,5s-.3,3.9-1,5.5c-.7,1.6-1.6,3.1-2.7,4.5-1.1,1.4-2.4,2.7-3.8,3.8-1.4,1.2-2.8,2.3-4.3,3.4-1.9,1.5-3.7,3-5.3,4.4-1.6,1.4-2.9,2.9-4,4.4s-2,3.1-2.6,4.7c-.6,1.6-.9,3.5-.9,5.5h25.5v4.2h-30.1v-1.3c0-2.9.3-5.5.9-7.7.6-2.2,1.4-4.3,2.6-6.2,1.1-1.9,2.6-3.6,4.3-5.3,1.7-1.7,3.7-3.4,6-5.2Z"/>
        <path class="st2" d="M1459.4,125.3c4.4,0,7.8-1.1,10.3-3.3,2.4-2.2,3.7-5.5,3.7-9.8s-.2-3.2-.6-4.6c-.4-1.4-1-2.7-1.9-3.8-.9-1.1-2-1.9-3.5-2.6-1.4-.6-3.2-1-5.2-1s-4.1.2-5.6.7c-1.5.5-2.7,1-3.6,1.5l-2.6-2,2.9-24.5h22.9v4.2h-19.5l-2.2,17.6c.8-.5,2-.8,3.5-1.1,1.5-.3,3.1-.4,4.8-.4s4.2.3,6,1c1.8.7,3.4,1.6,4.7,2.9,1.3,1.3,2.4,2.9,3.1,4.9.8,2,1.1,4.3,1.1,7s-.4,4.7-1.2,6.8c-.8,2.1-2,4-3.5,5.6-1.5,1.6-3.4,2.8-5.7,3.7-2.3.9-4.9,1.4-7.8,1.4s-5.2-.2-7.3-.7c-2.1-.5-3.6-.9-4.6-1.4l1.1-3.8c.8.4,2.2.7,4,1.1s4,.6,6.6.6Z"/>
        <path class="st2" d="M444.8,137.9c-5-3.1-11.3-5.9-18.8-8.3-7.5-2.4-16.3-3.6-26.3-3.6-15.4,0-27.1,3.7-35.2,11-8.1,7.3-12.1,16.8-12.1,28.5s.6,10.3,1.9,14.2c1.3,3.9,3.5,7.4,6.7,10.4,3.1,3.1,7.3,5.9,12.4,8.5,5.1,2.6,11.4,5.3,19,8.1l16.7,5.8c15.9,5.6,27.4,12.6,34.3,21.1,7,8.5,10.4,19,10.4,31.4s-1.3,13.7-3.9,20c-2.6,6.3-6.5,11.9-11.7,16.8-5.2,4.9-11.7,8.8-19.6,11.7-7.9,2.9-17.1,4.3-27.7,4.3s-12.9-.6-18.8-1.7c-5.8-1.1-11.2-2.5-16.1-4.2-4.9-1.7-9.3-3.4-13.1-5.3-3.8-1.9-6.8-3.5-9-5l5-10.3c2.8,1.7,5.8,3.4,9,5.3,3.2,1.9,7,3.5,11.1,5,4.2,1.5,8.9,2.7,14.2,3.8,5.3,1,11.3,1.5,17.9,1.5s13.3-.7,19.5-2.2c6.1-1.5,11.5-3.8,16.1-7.1,4.6-3.2,8.3-7.5,11.1-12.6,2.8-5.2,4.2-11.5,4.2-18.9,0-11.1-3.3-20.1-10-27-6.7-6.9-16.4-12.3-29.2-16.4l-14.7-4.7c-15.9-5.4-27.8-12-35.7-20-7.9-8-11.8-18.8-11.8-32.5s1.1-12.5,3.3-18.5c2.2-6,5.7-11.4,10.6-16.1,4.8-4.7,11-8.5,18.6-11.4,7.6-2.9,16.8-4.3,27.5-4.3s8,.3,12.4,1c4.4.7,8.7,1.5,13.1,2.6,4.4,1.1,8.5,2.5,12.4,4,3.9,1.6,7.4,3.3,10.6,5.1l-4.4,10Z"/>
        <path class="st2" d="M595.2,175.7c.2,13.3-3,24.8-9.5,34.3-6.5,9.5-16.2,16.2-29.2,19.9l49.8,84.5h-12.8l-49.2-82.3c-1.9.2-3.7.3-5.4.4-1.8,0-3.7.1-5.7.1h-36.4v81.7h-11.4V118.9h50.3c19.3,0,34,4.9,44.1,14.7,10.1,9.8,15.2,23.8,15.4,42ZM583.2,175.7c0-8.5-1.2-15.8-3.5-21.7-2.3-5.9-5.6-10.7-9.9-14.3-4.3-3.6-9.4-6.2-15.4-7.8-6-1.6-12.7-2.4-20.2-2.4h-37.5v92.6h35.6c16.3,0,28.9-3.8,37.7-11.3,8.8-7.5,13.2-19.2,13.2-35.2Z"/>
        <path class="st2" d="M723,306.9c-3.3,2.2-8.5,4.4-15.6,6.7-7,2.2-15.2,3.3-24.5,3.3s-20.1-1.7-28.1-5.1c-8-3.4-14.6-8.2-19.9-14.5-5.3-6.2-9.2-13.7-11.8-22.5-2.6-8.8-3.9-18.7-3.9-29.6s1.4-21.1,4.2-30c2.8-8.9,6.7-16.4,11.7-22.7,5-6.2,11.1-11,18.3-14.5,7.2-3.4,15.3-5.1,24.2-5.1s15.6,1.4,22.4,4.2c6.8,2.8,12.6,7.1,17.5,12.9,4.9,5.8,8.8,13.4,11.5,22.8,2.8,9.4,4.2,20.5,4.2,33.5v2.5h-103.1c.9,18.3,5.5,32.6,13.6,42.8,8.2,10.2,21.4,15.3,39.8,15.3s14.5-.9,20.6-2.6c6.1-1.8,11.3-3.7,15.6-5.7l3.3,8.3ZM722.2,238.8c-.4-8.7-1.5-16.5-3.3-23.4-1.9-6.9-4.6-12.8-8.2-17.6-3.6-4.8-8.2-8.5-13.6-11.1-5.5-2.6-12-3.9-19.6-3.9-13.9,0-25,4.9-33.2,14.7-8.2,9.8-12.9,23.5-14,41.2h92Z"/>
        <path class="st2" d="M824.5,211.2l62.8,103.1h-13.1l-57.3-94-57.8,94h-12.5l64.5-104-55-91.5h13.1l49.5,82,50.6-82h12.5l-57.3,92.3Z"/>
        <path class="st2" d="M1025.5,244.6c0,13.3-1.9,24.6-5.6,33.6-3.7,9.1-8.4,16.4-14.2,22-5.7,5.6-12.1,9.6-19.2,12.1-7,2.5-13.9,3.8-20.6,3.8s-16.9-1.3-24.6-3.9c-7.7-2.6-14.9-6.2-21.5-10.8v74.2h-10.3v-199h10.6v28.1c4.8-10.6,11.5-18.5,20.2-23.8,8.6-5.3,18.7-7.9,30.2-7.9s17,1.8,23.9,5.3c6.9,3.5,12.6,8.4,17.2,14.7,4.6,6.3,8.1,13.9,10.4,22.7,2.3,8.8,3.5,18.5,3.5,29.1ZM1014.4,244.6c0-8.9-.9-17.1-2.6-24.6-1.8-7.5-4.4-14-8.1-19.5-3.6-5.5-8.2-9.8-13.8-12.9-5.6-3.1-12.1-4.7-19.7-4.7s-14.5,1.5-20.7,4.4c-6.2,3-11.5,7-15.8,12.2-4.4,5.2-7.7,11.3-10,18.3-2.3,7-3.5,14.6-3.5,22.5v48.4c1.9,1.9,4.3,3.8,7.4,5.8,3.1,2,6.5,3.9,10.4,5.6,3.9,1.7,8.2,3.1,12.9,4.2,4.7,1.1,9.7,1.7,14.9,1.7s13.5-1.3,19.5-3.8c5.9-2.5,11.1-6.3,15.4-11.4,4.4-5.1,7.7-11.5,10.1-19.2,2.4-7.7,3.6-16.7,3.6-27.1Z"/>
        <path class="st2" d="M1155.3,306.9c-3.3,2.2-8.5,4.4-15.6,6.7-7,2.2-15.2,3.3-24.5,3.3s-20.1-1.7-28.1-5.1c-8-3.4-14.6-8.2-19.9-14.5-5.3-6.2-9.2-13.7-11.8-22.5-2.6-8.8-3.9-18.7-3.9-29.6s1.4-21.1,4.2-30c2.8-8.9,6.7-16.4,11.7-22.7,5-6.2,11.1-11,18.3-14.5,7.2-3.4,15.3-5.1,24.2-5.1s15.6,1.4,22.4,4.2c6.8,2.8,12.6,7.1,17.5,12.9,4.9,5.8,8.8,13.4,11.5,22.8,2.8,9.4,4.2,20.5,4.2,33.5v2.5h-103.1c.9,18.3,5.5,32.6,13.6,42.8,8.2,10.2,21.4,15.3,39.8,15.3s14.5-.9,20.6-2.6c6.1-1.8,11.3-3.7,15.6-5.7l3.3,8.3ZM1154.5,238.8c-.4-8.7-1.5-16.5-3.3-23.4-1.9-6.9-4.6-12.8-8.2-17.6-3.6-4.8-8.2-8.5-13.6-11.1-5.5-2.6-12-3.9-19.6-3.9-13.9,0-25,4.9-33.2,14.7-8.2,9.8-12.9,23.5-14,41.2h92Z"/>
        <path class="st2" d="M1207,176.5v32.8c4.3-10.9,10.7-19.3,19.2-25.2,8.5-5.8,18.8-8.8,30.9-8.8s2.6,0,4.4.1c1.9,0,3.4.3,4.7.7l-1.1,10.3c-1.3-.2-2.9-.3-4.9-.4-1.9,0-3.4-.1-4.3-.1-8.2,0-15.3,1.6-21.4,4.9-6.1,3.2-11.2,7.6-15.3,13.2-4.1,5.6-7.2,12-9.3,19.5-2.1,7.4-3.2,15.2-3.2,23.4v67.6h-10.6v-137.9h10.8Z"/>
        <path class="st2" d="M1304.3,186.5h-28.9v-10h28.9v-41.4l10.6-2.8v44.2h42.3v10h-42.3v85.8c0,6.8.6,12.4,1.9,16.7,1.3,4.3,3.2,7.8,5.8,10.2,2.6,2.5,5.9,4.2,9.9,5.1,4,.9,8.7,1.4,14,1.4s6.5-.5,11.1-1.4l1.4,9.1c-1.5.6-3.8,1.1-7.1,1.6-3.2.5-6.7.7-10.4.7-7,0-12.9-1-17.7-2.9-4.7-1.9-8.5-4.7-11.4-8.2-2.9-3.5-5-7.7-6.3-12.5-1.3-4.8-1.9-10-1.9-15.5v-90.2Z"/>
        <path class="st2" d="M1434.4,240.2c5.2.9,10.1,2.3,14.9,4,4.7,1.8,8.8,4.1,12.4,7.1,3.5,3,6.3,6.6,8.3,10.8,2,4.3,3.1,9.4,3.1,15.3,0,12.4-4.5,22.1-13.5,29.1-9,6.9-21.1,10.4-36.3,10.4s-21.3-1.4-29.5-4.3c-8.2-2.9-14.3-5.6-18.3-8.2l4.4-9.2c4.1,2.6,9.8,5.2,17.2,7.8,7.4,2.6,16,3.9,25.9,3.9s13.3-.7,18.3-2.2c5-1.5,9-3.5,12.1-6.1,3.1-2.6,5.3-5.7,6.7-9.2,1.4-3.5,2.1-7.2,2.1-11.1s-.4-6.4-1.3-9.3c-.8-2.9-2.4-5.5-4.6-7.9-2.2-2.4-5.3-4.5-9.3-6.3-4-1.8-9.1-3.2-15.4-4.3l-15-2.8c-13.5-2.4-23.4-6.4-29.7-12-6.3-5.6-9.5-13.9-9.5-25s1.3-11.8,3.8-16.5c2.5-4.7,5.9-8.7,10.1-11.8,4.3-3.1,9.2-5.5,14.9-7.1,5.7-1.6,11.6-2.4,17.9-2.4,9.3,0,17.2,1,23.8,3.1,6.6,2,12.3,4.4,17.1,7l-3.9,9.5c-4.3-2.2-9.5-4.4-15.7-6.4-6.2-2-13.4-3.1-21.5-3.1s-19.8,2.5-26.1,7.6c-6.3,5.1-9.5,12.1-9.5,21s.5,6.9,1.5,9.6c1,2.7,2.8,5.1,5.4,7.1,2.6,2,6,3.8,10.1,5.3,4.2,1.5,9.5,2.9,16,4.2l13.1,2.5Z"/>
      </g>
      <g>
        <path class="st2" d="M651.1,443.2v64.7h-6.6v-76.6h7.6l38.5,64.4v-64.4h6.6v76.6h-7.1l-39-64.7Z"/>
        <path class="st2" d="M736.7,503.2c3.3,0,6.1-.4,8.4-1.1,2.3-.7,4.2-1.4,5.6-2l2,5.1c-1.1.7-3.1,1.5-6,2.5-2.9.9-6.4,1.4-10.6,1.4-8.8,0-15.3-2.5-19.6-7.4-4.3-4.9-6.4-11.9-6.4-20.9s.5-8.2,1.6-11.7c1.1-3.5,2.7-6.5,4.7-9,2-2.5,4.5-4.4,7.5-5.7,2.9-1.3,6.3-2,10-2s6.6.5,9.4,1.6c2.8,1.1,5.1,2.8,7,5.1,1.9,2.4,3.4,5.4,4.4,9,1,3.7,1.5,8.1,1.5,13.4v1.3h-39.7c.4,6.3,2.2,11.3,5.4,14.9,3.2,3.6,8.2,5.5,14.9,5.5ZM749.7,477.3c-.4-6-1.7-10.7-4.1-14.1-2.4-3.3-6.4-5-11.9-5s-9.5,1.7-12.2,5c-2.7,3.3-4.3,8-4.9,14.1h33.1Z"/>
        <path class="st2" d="M792,502.8c1,0,2,0,2.8-.1.9,0,1.6-.2,2.3-.3l.7,5.2c-.7.2-1.8.4-3.3.7-1.5.2-3.1.3-4.8.3-5.8,0-9.9-1.4-12.4-4.1-2.4-2.8-3.7-6.6-3.7-11.6v-33.4h-11.2v-5.7h11.2v-15.9l6.4-1.7v17.7h16.5v5.7h-16.5v31.5c0,2.5.3,4.5.8,6,.5,1.5,1.3,2.7,2.3,3.6,1,.9,2.3,1.5,3.8,1.7,1.5.3,3.2.4,5.1.4Z"/>
        <path class="st2" d="M800,453.8h6.9l13.3,46.7,11.7-45h7.3l11.7,45,13.2-46.7h6.4l-16.2,54.1h-7.3l-11.6-44-11.7,44h-7.3l-16.3-54.1Z"/>
        <path class="st2" d="M900.3,452.4c4.1,0,7.8.7,10.8,2.1,3.1,1.4,5.7,3.4,7.7,5.9s3.6,5.5,4.7,8.9c1.1,3.5,1.6,7.2,1.6,11.4s-.5,8-1.6,11.4c-1.1,3.5-2.7,6.5-4.7,9-2.1,2.5-4.7,4.5-7.8,5.8-3.1,1.4-6.7,2.1-10.7,2.1s-7.7-.7-10.8-2.1c-3.1-1.4-5.7-3.3-7.8-5.8-2.1-2.5-3.6-5.5-4.7-9-1.1-3.5-1.6-7.3-1.6-11.4s.5-7.9,1.6-11.4c1.1-3.5,2.7-6.4,4.7-8.9,2.1-2.5,4.6-4.5,7.7-5.9,3.1-1.4,6.7-2.1,10.7-2.1ZM900.3,503.2c6.2,0,10.9-2,13.8-6,3-4,4.5-9.5,4.5-16.4s-1.5-12.2-4.5-16.3c-3-4.1-7.6-6.2-13.8-6.2s-10.7,2.1-13.7,6.2c-3,4.1-4.5,9.5-4.5,16.3s1.5,12.5,4.5,16.5c3,4,7.6,6,13.7,6Z"/>
        <path class="st2" d="M962.4,453.3c.8,0,1.7,0,2.6.1.9,0,1.6.2,1.9.3l-.5,6c-.6-.1-1.3-.2-2.1-.3-.8,0-1.6,0-2.3,0-3,0-5.6.6-7.8,1.8-2.3,1.2-4.1,2.9-5.7,5.1-1.5,2.2-2.7,4.8-3.5,7.8-.8,3-1.2,6.4-1.2,10.1v23.7h-6.4v-54.1h6l.2,11.4c1.5-3.5,3.8-6.4,7-8.6,3.2-2.3,7.2-3.4,11.8-3.4Z"/>
        <path class="st2" d="M980.2,477.8l22.8-24h8.2l-23.4,24.2,26.6,29.9h-8.4l-25.7-29.2v29.2h-6.4v-81.8h6.4v51.7Z"/>
        <path class="st2" d="M1073.2,502.8c1,0,2,0,2.8-.1.9,0,1.6-.2,2.3-.3l.7,5.2c-.7.2-1.8.4-3.3.7-1.5.2-3.1.3-4.8.3-5.8,0-9.9-1.4-12.4-4.1-2.4-2.8-3.7-6.6-3.7-11.6v-33.4h-11.2v-5.7h11.2v-15.9l6.4-1.7v17.7h16.5v5.7h-16.5v31.5c0,2.5.3,4.5.8,6,.5,1.5,1.3,2.7,2.3,3.6,1,.9,2.3,1.5,3.8,1.7,1.5.3,3.2.4,5.1.4Z"/>
        <path class="st2" d="M1094.1,463.2c1.7-3.5,4.1-6.2,7.3-8,3.2-1.9,7.2-2.8,12-2.8s10.4,1.7,13.6,5.1c3.2,3.4,4.7,8.4,4.7,15v35.3h-6.4v-34.4c0-2.8-.3-5.2-1-7.2-.7-2-1.6-3.5-2.8-4.7-1.2-1.2-2.6-2-4.3-2.5-1.6-.5-3.4-.8-5.4-.8-3,0-5.6.7-7.8,2-2.2,1.3-4.1,3.1-5.5,5.2-1.5,2.1-2.5,4.6-3.3,7.2-.7,2.7-1.1,5.4-1.1,8.2v26.9h-6.4v-81.8h6.4v37.1Z"/>
        <path class="st2" d="M1169.7,503.2c3.3,0,6.1-.4,8.4-1.1,2.3-.7,4.2-1.4,5.6-2l2,5.1c-1.1.7-3.1,1.5-6,2.5-2.9.9-6.4,1.4-10.6,1.4-8.8,0-15.3-2.5-19.6-7.4-4.3-4.9-6.4-11.9-6.4-20.9s.5-8.2,1.6-11.7c1.1-3.5,2.7-6.5,4.7-9,2-2.5,4.5-4.4,7.5-5.7,2.9-1.3,6.3-2,10-2s6.6.5,9.4,1.6c2.8,1.1,5.1,2.8,7,5.1,1.9,2.4,3.4,5.4,4.4,9,1,3.7,1.5,8.1,1.5,13.4v1.3h-39.7c.4,6.3,2.2,11.3,5.4,14.9,3.2,3.6,8.2,5.5,14.9,5.5ZM1182.6,477.3c-.4-6-1.7-10.7-4.1-14.1-2.4-3.3-6.4-5-11.9-5s-9.5,1.7-12.2,5c-2.7,3.3-4.3,8-4.9,14.1h33.1Z"/>
        <path class="st2" d="M1259.7,436.2c-8.2,0-14.6,2.9-19.1,8.6-4.5,5.7-6.8,14.1-6.8,25.2s2.3,19.9,6.8,25.2c4.5,5.2,10.9,7.9,19.1,7.9s4.6-.2,6.6-.7c2-.4,3.8-1,5.5-1.6,1.6-.7,3.1-1.4,4.4-2.2,1.3-.8,2.4-1.6,3.4-2.3l3.3,5c-2.5,2.1-5.7,3.9-9.8,5.5-4,1.6-8.6,2.4-13.8,2.4-11.1,0-19.3-3.4-24.6-10.1-5.3-6.8-8-16.4-8-29s.7-11.4,2-16.3c1.3-4.9,3.4-9.1,6.1-12.6,2.7-3.5,6.1-6.2,10.2-8.1,4.1-1.9,8.9-2.9,14.4-2.9s5.7.3,8.2.9c2.5.6,4.7,1.3,6.5,2.1,1.9.8,3.5,1.7,4.9,2.6,1.3.9,2.4,1.7,3.2,2.4l-3.6,5.1c-.9-.7-2-1.5-3.2-2.3-1.2-.8-2.6-1.6-4.1-2.3-1.6-.7-3.3-1.3-5.2-1.7-1.9-.4-4.1-.7-6.4-.7Z"/>
        <path class="st2" d="M1298.8,507.9h-6.4v-81.8h6.4v81.8Z"/>
        <path class="st2" d="M1335.4,452.4c4.1,0,7.8.7,10.8,2.1s5.7,3.4,7.7,5.9c2.1,2.5,3.6,5.5,4.7,8.9,1.1,3.5,1.6,7.2,1.6,11.4s-.5,8-1.6,11.4c-1.1,3.5-2.7,6.5-4.7,9-2.1,2.5-4.7,4.5-7.8,5.8-3.1,1.4-6.7,2.1-10.7,2.1s-7.7-.7-10.8-2.1c-3.1-1.4-5.7-3.3-7.8-5.8-2.1-2.5-3.6-5.5-4.7-9-1.1-3.5-1.6-7.3-1.6-11.4s.5-7.9,1.6-11.4c1.1-3.5,2.7-6.4,4.7-8.9s4.7-4.5,7.7-5.9,6.7-2.1,10.7-2.1ZM1335.4,503.2c6.2,0,10.9-2,13.8-6,3-4,4.5-9.5,4.5-16.4s-1.5-12.2-4.5-16.3c-3-4.1-7.6-6.2-13.8-6.2s-10.7,2.1-13.7,6.2c-3,4.1-4.5,9.5-4.5,16.3s1.5,12.5,4.5,16.5c3,4,7.6,6,13.7,6Z"/>
        <path class="st2" d="M1409.5,453.8h6.4v54.1h-6l-.2-10c-1.7,3.5-4.2,6.3-7.4,8.3-3.2,2-7.2,3.1-12.3,3.1s-10.5-1.7-13.5-5.1-4.6-8.4-4.6-15v-35.3h6.4v34.4c0,2.8.3,5.2,1,7.1.7,1.9,1.6,3.5,2.8,4.6,1.2,1.2,2.6,2,4.3,2.5,1.6.5,3.4.8,5.4.8,2.8,0,5.3-.7,7.5-2s4-3,5.6-5.1c1.5-2.1,2.7-4.5,3.4-7.1.8-2.7,1.1-5.4,1.1-8.1v-27.1Z"/>
        <path class="st2" d="M1469.2,501.4c-2.1,2.1-4.7,3.9-7.7,5.2-3.1,1.4-6.8,2.1-11.1,2.1s-5.6-.5-8.3-1.4c-2.7-.9-5.2-2.4-7.3-4.6-2.1-2.1-3.9-5-5.1-8.6-1.3-3.6-1.9-8-1.9-13.3s.5-7,1.4-10.5c.9-3.4,2.3-6.5,4.1-9.2,1.9-2.7,4.2-4.8,7.1-6.4,2.9-1.6,6.4-2.4,10.5-2.4s7.9.8,10.9,2.5c3,1.7,5.4,4.1,7.2,7.3v-36.1h6.4v81.8h-6v-6.5ZM1450.8,458.3c-2.8,0-5.3.6-7.4,1.7-2.1,1.2-3.8,2.7-5.1,4.7-1.3,2-2.3,4.4-3,7.1-.7,2.8-1,5.7-1,8.9,0,7.6,1.5,13.1,4.6,16.6,3.1,3.5,7.2,5.3,12.3,5.3s4.3-.3,6.2-.8c1.9-.5,3.6-1.3,5.1-2.1,1.5-.9,2.8-1.8,3.8-2.9,1.1-1.1,1.9-2.1,2.6-3.1v-12.1c0-7.4-1.6-13.2-4.7-17.3-3.1-4.1-7.6-6.2-13.4-6.2Z"/>
      </g>
      <g>
        <path class="st2" d="M527.2,393.8l943.1-12.5c6.9,0,12.6,5.4,12.7,12.3,0,6.9-5.4,12.6-12.3,12.7,0,0-943.4-12.5-943.5-12.5h0Z"/>
        <path class="st2" d="M527.2,393.8l943.1-4c2.2,0,4,1.8,4,4,0,2.2-1.8,4-4,4,0,0-943.2-4-943.2-4h0Z"/>
        <g class="st1">
          <path class="st2" d="M527.2,393.8s943.1-6,943.1-6c3.3,0,6,2.6,6,6,0,3.3-2.6,6-6,6,0,0-943.2-6-943.2-6h0Z"/>
        </g>
      </g>
    </g>
  </g>
</svg>