<?xml version="1.0" encoding="UTF-8"?>
<svg id="Layer_2" data-name="Layer 2" xmlns="http://www.w3.org/2000/svg" width="1399.7" height="632.9" viewBox="0 0 1399.7 632.9">
  <g id="Layer_1-2" data-name="Layer 1">
    <g>
      <path d="M135.4,147c-6.1-3.9-13.8-7.3-23-10.2-9.2-2.9-19.9-4.4-32.1-4.4-18.8,0-33.2,4.5-43,13.4-9.9,9-14.8,20.6-14.8,34.9s.8,12.6,2.4,17.3c1.6,4.8,4.3,9,8.2,12.8,3.9,3.7,8.9,7.2,15.1,10.4,6.2,3.2,14,6.5,23.3,9.9l20.4,7.1c19.5,6.8,33.5,15.4,42,25.9,8.5,10.4,12.8,23.2,12.8,38.4s-1.6,16.8-4.8,24.5c-3.2,7.7-7.9,14.6-14.3,20.6-6.4,6-14.3,10.8-24,14.3-9.6,3.5-20.9,5.3-33.8,5.3s-15.8-.7-23-2-13.7-3.1-19.7-5.1c-6-2-11.3-4.2-16-6.5-4.7-2.3-8.3-4.3-11.1-6.1l6.1-12.6c3.4,2,7.1,4.2,11.1,6.5,4,2.3,8.5,4.3,13.6,6.1,5.1,1.8,10.9,3.3,17.3,4.6,6.5,1.2,13.8,1.9,21.9,1.9s16.3-.9,23.8-2.7c7.5-1.8,14.1-4.7,19.7-8.7,5.7-4,10.2-9.1,13.6-15.5,3.4-6.3,5.1-14.1,5.1-23.1,0-13.6-4.1-24.6-12.2-33-8.2-8.4-20.1-15.1-35.7-20.1l-18-5.8c-19.5-6.6-34.1-14.7-43.7-24.5-9.6-9.7-14.5-23-14.5-39.8s1.4-15.2,4.1-22.6c2.7-7.4,7-13.9,12.9-19.7,5.9-5.8,13.5-10.4,22.8-13.9,9.3-3.5,20.5-5.3,33.7-5.3s9.8.4,15.1,1.2c5.3.8,10.7,1.9,16,3.2,5.3,1.4,10.4,3,15.1,4.9,4.8,1.9,9.1,4,12.9,6.3l-5.4,12.2Z" style="fill: #fff;"/>
      <path d="M319.4,193.2c.2,16.3-3.6,30.3-11.6,42-7.9,11.7-19.8,19.8-35.7,24.3l60.9,103.4h-15.6l-60.2-100.7c-2.3.2-4.5.4-6.6.5-2.2.1-4.5.2-7,.2h-44.6v100h-13.9V123.8h61.6c23.6,0,41.6,6,53.9,18,12.4,12,18.7,29.1,18.9,51.4ZM304.8,193.2c0-10.4-1.4-19.3-4.3-26.5-2.8-7.3-6.9-13.1-12.1-17.5-5.2-4.4-11.5-7.6-18.9-9.5-7.4-1.9-15.6-2.9-24.7-2.9h-45.9v113.3h43.5c20,0,35.3-4.6,46.1-13.8,10.8-9.2,16.2-23.5,16.2-43Z" style="fill: #fff;"/>
      <path d="M475.9,353.8c-4.1,2.7-10.4,5.4-19,8.2-8.6,2.7-18.6,4.1-29.9,4.1s-24.6-2.1-34.4-6.3c-9.8-4.2-17.9-10.1-24.3-17.7-6.5-7.6-11.3-16.8-14.5-27.6-3.2-10.8-4.8-22.8-4.8-36.2s1.7-25.9,5.1-36.7c3.4-10.9,8.2-20.1,14.3-27.7,6.1-7.6,13.6-13.5,22.5-17.7,8.8-4.2,18.7-6.3,29.6-6.3s19.1,1.7,27.4,5.1c8.3,3.4,15.4,8.7,21.4,15.8,6,7.1,10.7,16.4,14.1,27.9,3.4,11.5,5.1,25.1,5.1,41v3.1h-126.2c1.1,22.5,6.7,39.9,16.7,52.4,10,12.5,26.2,18.7,48.6,18.7s17.7-1.1,25.2-3.2c7.5-2.2,13.8-4.5,19-7l4.1,10.2ZM474.9,270.4c-.5-10.6-1.8-20.1-4.1-28.6-2.3-8.5-5.6-15.6-10-21.5-4.4-5.9-10-10.4-16.7-13.5-6.7-3.2-14.7-4.7-24-4.7-17,0-30.6,6-40.7,17.9-10.1,12-15.8,28.8-17.2,50.4h112.6Z" style="fill: #fff;"/>
      <path d="M600.1,236.8l76.9,126.2h-16l-70.1-115-70.8,115h-15.3l78.9-127.2-67.4-111.9h16l60.6,100.4,61.9-100.4h15.3l-70.1,112.9Z" style="fill: #fff;"/>
      <path d="M846,277.6c0,16.3-2.3,30.1-6.8,41.2-4.5,11.1-10.3,20.1-17.3,26.9-7,6.8-14.9,11.7-23.5,14.8-8.6,3.1-17,4.6-25.2,4.6s-20.7-1.6-30.1-4.8c-9.4-3.2-18.2-7.6-26.4-13.3v90.8h-12.6v-243.6h12.9v34.4c5.9-12.9,14.1-22.6,24.7-29.1,10.5-6.5,22.8-9.7,36.9-9.7s20.9,2.2,29.3,6.5c8.4,4.3,15.4,10.3,21.1,18,5.7,7.7,9.9,17,12.8,27.7,2.8,10.8,4.3,22.6,4.3,35.5ZM832.4,277.6c0-10.9-1.1-20.9-3.2-30.1-2.2-9.2-5.4-17.1-9.9-23.8-4.4-6.7-10-12-16.8-15.8-6.8-3.9-14.9-5.8-24.2-5.8s-17.7,1.8-25.3,5.4c-7.6,3.6-14.1,8.6-19.4,15-5.3,6.4-9.4,13.8-12.2,22.5-2.8,8.6-4.3,17.8-4.3,27.6v59.2c2.3,2.3,5.3,4.7,9,7.1,3.7,2.5,8,4.8,12.8,6.8,4.8,2,10,3.7,15.8,5.1,5.8,1.4,11.8,2,18.2,2s16.6-1.5,23.8-4.6c7.3-3.1,13.5-7.7,18.9-13.9,5.3-6.2,9.5-14.1,12.4-23.5,2.9-9.4,4.4-20.5,4.4-33.2Z" style="fill: #fff;"/>
      <path d="M1004.9,353.8c-4.1,2.7-10.4,5.4-19,8.2-8.6,2.7-18.6,4.1-29.9,4.1s-24.6-2.1-34.4-6.3c-9.8-4.2-17.9-10.1-24.3-17.7-6.5-7.6-11.3-16.8-14.5-27.6-3.2-10.8-4.8-22.8-4.8-36.2s1.7-25.9,5.1-36.7c3.4-10.9,8.2-20.1,14.3-27.7,6.1-7.6,13.6-13.5,22.5-17.7,8.8-4.2,18.7-6.3,29.6-6.3s19.1,1.7,27.4,5.1c8.3,3.4,15.4,8.7,21.4,15.8,6,7.1,10.7,16.4,14.1,27.9,3.4,11.5,5.1,25.1,5.1,41v3.1h-126.2c1.1,22.5,6.7,39.9,16.7,52.4,10,12.5,26.2,18.7,48.6,18.7s17.7-1.1,25.2-3.2c7.5-2.2,13.8-4.5,19-7l4.1,10.2ZM1003.8,270.4c-.5-10.6-1.8-20.1-4.1-28.6-2.3-8.5-5.6-15.6-10-21.5-4.4-5.9-10-10.4-16.7-13.5-6.7-3.2-14.7-4.7-24-4.7-17,0-30.6,6-40.7,17.9-10.1,12-15.8,28.8-17.2,50.4h112.6Z" style="fill: #fff;"/>
      <path d="M1068.1,194.2v40.1c5.2-13.4,13-23.6,23.5-30.8,10.4-7.1,23-10.7,37.8-10.7s3.2,0,5.4.2c2.3.1,4.2.4,5.8.9l-1.4,12.6c-1.6-.2-3.6-.4-6-.5-2.4-.1-4.1-.2-5.3-.2-10,0-18.7,2-26.2,6-7.5,4-13.7,9.4-18.7,16.2-5,6.8-8.8,14.7-11.4,23.8-2.6,9.1-3.9,18.6-3.9,28.6v82.7h-12.9v-168.7h13.3Z" style="fill: #fff;"/>
      <path d="M1187.2,206.5h-35.4v-12.2h35.4v-50.7l12.9-3.4v54.1h51.7v12.2h-51.7v105c0,8.4.8,15.2,2.4,20.5,1.6,5.3,4,9.5,7.1,12.5,3.2,3.1,7.2,5.1,12.1,6.3,4.9,1.1,10.6,1.7,17.2,1.7s7.9-.6,13.6-1.7l1.7,11.2c-1.8.7-4.7,1.3-8.7,1.9-4,.6-8.2.9-12.8.9-8.6,0-15.8-1.2-21.6-3.6-5.8-2.4-10.4-5.7-13.9-10-3.5-4.3-6.1-9.4-7.7-15.3-1.6-5.9-2.4-12.2-2.4-19v-110.3Z" style="fill: #fff;"/>
      <path d="M1346.4,272.1c6.3,1.1,12.4,2.8,18.2,4.9,5.8,2.2,10.8,5,15.1,8.7,4.3,3.6,7.7,8.1,10.2,13.3,2.5,5.2,3.7,11.5,3.7,18.7,0,15.2-5.5,27-16.5,35.5-11,8.5-25.8,12.8-44.4,12.8s-26.1-1.8-36.1-5.3c-10-3.5-17.5-6.9-22.5-10l5.4-11.2c5,3.2,12,6.4,21.1,9.5,9.1,3.2,19.6,4.8,31.6,4.8s16.3-.9,22.5-2.7c6.1-1.8,11.1-4.3,14.8-7.5,3.7-3.2,6.5-6.9,8.2-11.2,1.7-4.3,2.6-8.8,2.6-13.6s-.5-7.9-1.5-11.4c-1-3.5-2.9-6.7-5.6-9.7-2.7-2.9-6.5-5.5-11.4-7.7-4.9-2.2-11.2-3.9-18.9-5.3l-18.4-3.4c-16.6-2.9-28.7-7.8-36.4-14.6-7.7-6.8-11.6-17-11.6-30.6s1.5-14.5,4.6-20.2c3.1-5.8,7.2-10.6,12.4-14.5,5.2-3.9,11.3-6.7,18.2-8.7,6.9-1.9,14.2-2.9,21.9-2.9,11.3,0,21,1.2,29.1,3.7,8,2.5,15,5.3,20.9,8.5l-4.8,11.6c-5.2-2.7-11.6-5.3-19.2-7.8-7.6-2.5-16.4-3.7-26.4-3.7s-24.3,3.1-32,9.4c-7.7,6.2-11.6,14.8-11.6,25.7s.6,8.5,1.9,11.7c1.2,3.3,3.5,6.2,6.6,8.7,3.2,2.5,7.3,4.7,12.4,6.5,5.1,1.8,11.6,3.5,19.6,5.1l16,3.1Z" style="fill: #fff;"/>
    </g>
    <g>
      <path d="M275.1,580.7h-35l-7.8,23.9h-7.8l28.7-85.8h9l28.8,85.8h-8.2l-7.7-23.9ZM242.2,573.9h30.7l-15.2-46.2-15.5,46.2Z" style="fill: #fff;"/>
      <path d="M344.6,597.3c-2.4,2.4-5.2,4.3-8.7,5.9-3.4,1.5-7.6,2.3-12.4,2.3s-6.3-.5-9.3-1.5c-3.1-1-5.8-2.7-8.2-5.1-2.4-2.4-4.3-5.6-5.7-9.6-1.4-4-2.1-8.9-2.1-14.9s.5-7.9,1.5-11.7c1-3.8,2.6-7.2,4.6-10.2,2.1-3,4.7-5.4,8-7.2,3.3-1.8,7.2-2.7,11.7-2.7s8.9.9,12.2,2.8c3.3,1.9,6,4.6,8.1,8.2v-40.4h7.2v91.5h-6.7v-7.3ZM323.9,549.1c-3.2,0-5.9.7-8.2,2-2.3,1.3-4.2,3.1-5.7,5.3-1.5,2.2-2.6,4.9-3.4,8-.7,3.1-1.1,6.4-1.1,10,0,8.5,1.7,14.7,5.2,18.6,3.5,3.9,8,5.9,13.7,5.9s4.8-.3,7-.9c2.1-.6,4-1.4,5.7-2.4,1.7-1,3.1-2.1,4.3-3.2,1.2-1.2,2.1-2.3,2.9-3.5v-13.5c0-8.3-1.8-14.7-5.2-19.3-3.5-4.6-8.5-6.9-15-6.9Z" style="fill: #fff;"/>
      <path d="M383.5,604.6l-22.9-60.5h7.9l19.2,52.9,18.9-52.9h7.6l-22.8,60.5h-7.8Z" style="fill: #fff;"/>
      <path d="M437.4,606.1c-2.1,0-4.3-.3-6.5-1-2.2-.6-4.3-1.7-6.1-3.2s-3.3-3.4-4.5-5.7c-1.2-2.4-1.8-5.2-1.8-8.7,0-6,1.9-10.9,5.7-14.6,3.8-3.7,9.5-5.6,17.1-5.6s3.6,0,5.5.2c1.9.1,3.6.3,5.2.5,1.6.2,3,.4,4.2.6,1.2.2,2.2.3,2.8.4v-5.4c0-5.3-1.5-9.1-4.5-11.3-3-2.3-7.3-3.4-12.9-3.4s-7.4.5-10.2,1.5c-2.8,1-5,2-6.6,2.9l-2.4-5.6c1.5-.9,4.1-2,7.6-3.2,3.5-1.3,8-1.9,13.5-1.9s12.7,1.7,16.7,5.1c3.9,3.4,5.9,8.5,5.9,15.4v41.5h-6.6l-.2-8.7c-1.2,2-2.7,3.6-4.3,4.9-1.7,1.3-3.5,2.3-5.4,3.1s-4,1.3-6,1.6c-2.1.3-4,.5-5.9.5ZM459,575.3c-.7-.2-1.6-.3-2.7-.5-1.2-.2-2.5-.4-4.1-.5-1.5-.2-3.2-.3-5-.4-1.8-.1-3.5-.2-5.2-.2-6,0-10.2,1.3-12.6,3.8-2.4,2.5-3.6,5.9-3.6,10.1s1.3,7.4,4,9.4c2.7,2,6.2,2.9,10.5,2.9s4.8-.5,7.1-1.5c2.3-1,4.3-2.3,6-3.9,1.7-1.6,3.1-3.5,4.1-5.6,1-2.1,1.5-4.2,1.5-6.4v-7.2Z" style="fill: #fff;"/>
      <path d="M489.1,544.1l.2,10.9c1.9-3.9,4.6-7,8.2-9.2,3.6-2.2,8-3.3,13.1-3.3s12.2,1.9,15.7,5.7c3.5,3.8,5.2,9.4,5.2,16.8v39.5h-7.2v-38.6c0-3.2-.4-5.9-1.2-8.1-.8-2.2-1.8-3.9-3.2-5.2-1.3-1.3-2.9-2.2-4.8-2.8-1.8-.6-3.8-.9-6-.9-3.3,0-6.2.8-8.7,2.3-2.5,1.5-4.5,3.5-6.2,5.9-1.6,2.4-2.8,5.1-3.7,8.1-.8,3-1.2,6.1-1.2,9.2v30.1h-7.2v-60.5h6.7Z" style="fill: #fff;"/>
      <path d="M552.9,574.2c0,4.4.5,8.2,1.5,11.3,1,3.1,2.4,5.7,4.1,7.8,1.7,2.1,3.9,3.6,6.3,4.6,2.5,1,5.2,1.5,8.1,1.5s6.8-.4,9.2-1.2c2.4-.8,4.3-1.6,5.7-2.3l2.7,5.4c-1.1.9-3.2,1.9-6,3-2.9,1.1-6.9,1.7-12,1.7-8.6,0-15.3-2.7-20-8.2-4.7-5.4-7.1-13.3-7.1-23.4s.6-9,1.9-12.9c1.3-3.9,3.1-7.3,5.4-10.1,2.4-2.8,5.2-5,8.5-6.5,3.3-1.5,7.1-2.3,11.3-2.3s4.8.2,6.8.6c2,.4,3.7.9,5.2,1.5,1.5.6,2.7,1.3,3.7,2,1,.7,1.8,1.3,2.4,1.8l-3.4,5.5c-1.1-.8-2.9-1.8-5.3-3-2.4-1.2-5.4-1.8-9.1-1.8-5.9,0-10.7,2.1-14.5,6.2-3.8,4.1-5.7,10.5-5.7,18.9Z" style="fill: #fff;"/>
      <path d="M600.5,523.8c0-1.8.5-3.2,1.5-4.3,1-1.1,2.3-1.6,4-1.6s3,.5,4,1.6c1.1,1.1,1.6,2.5,1.6,4.3s-.5,3.3-1.6,4.4c-1.1,1.1-2.4,1.6-4,1.6s-2.9-.5-4-1.6c-1-1.1-1.5-2.5-1.5-4.3ZM602.5,544.1h7.2v60.5h-7.2v-60.5Z" style="fill: #fff;"/>
      <path d="M633.5,544.1l.2,10.9c1.9-3.9,4.6-7,8.2-9.2,3.6-2.2,8-3.3,13.1-3.3s12.2,1.9,15.7,5.7c3.5,3.8,5.2,9.4,5.2,16.8v39.5h-7.2v-38.6c0-3.2-.4-5.9-1.2-8.1-.8-2.2-1.8-3.9-3.2-5.2-1.3-1.3-2.9-2.2-4.8-2.8-1.8-.6-3.8-.9-6-.9-3.3,0-6.2.8-8.7,2.3-2.5,1.5-4.5,3.5-6.2,5.9-1.6,2.4-2.8,5.1-3.7,8.1-.8,3-1.2,6.1-1.2,9.2v30.1h-7.2v-60.5h6.7Z" style="fill: #fff;"/>
      <path d="M732.8,549.3c2.3,1.6,4,3.7,5.1,6.3,1.1,2.6,1.7,5.4,1.7,8.4s-.7,7-2.2,9.6c-1.5,2.7-3.4,4.9-5.7,6.6-2.3,1.7-4.9,3-7.7,3.9s-5.6,1.3-8.2,1.3-4.8-.2-7.2-.7c-2.4-.4-4.8-1.3-7-2.5-1.1,1.1-2.2,2.3-3.1,3.7-.9,1.4-1.4,3.2-1.4,5.2s1,4.1,2.9,5.2c1.9,1.1,5.5,1.7,10.8,1.8l13.4.2c2.7,0,5.2.4,7.7.9,2.4.5,4.6,1.3,6.5,2.4,1.9,1.1,3.4,2.6,4.5,4.4,1.1,1.8,1.6,4.1,1.6,6.9s-.7,5.2-2,7.6c-1.3,2.4-3.3,4.5-6,6.3-2.7,1.8-6,3.2-10.1,4.3-4,1.1-8.7,1.6-14.1,1.6s-6.5-.3-9.5-.8c-3-.5-5.7-1.4-7.9-2.7-2.3-1.3-4.1-3-5.5-5-1.4-2-2.1-4.6-2.1-7.7s.7-5.9,2.1-8.4c1.4-2.5,3.3-4.7,5.6-6.5-1.4-.9-2.5-2.1-3.3-3.7-.8-1.5-1.2-3.5-1.2-5.7s.7-4.9,2-7.3c1.3-2.3,2.8-4.2,4.6-5.7-1.9-1.6-3.3-3.7-4.4-6.3-1.1-2.6-1.6-5.7-1.6-9.1s.8-7,2.3-9.6c1.5-2.7,3.4-4.9,5.7-6.6,2.3-1.7,4.9-3,7.7-3.9,2.8-.9,5.6-1.3,8.3-1.3s3.1,0,4.4.2c1.3.2,2.5.3,3.6.5,1.1.2,2.2.4,3.2.5,1,.2,2.1.2,3.2.2h16.5v5.7h-3.4c-1.2,0-2.8,0-4.9-.1-2,0-3.7-.2-5.1-.4ZM712.6,604.8c-1.7,0-3.6-.1-5.8-.2-2.2,0-4.2-.3-6.2-.8-1.6,1.4-3,3.1-4.3,5.2-1.2,2.1-1.8,4.4-1.8,6.9s.5,3.6,1.5,5.1c1,1.4,2.3,2.6,4,3.4,1.7.9,3.6,1.5,5.8,1.9,2.2.4,4.5.6,7,.6,7.5,0,13.4-1.2,17.8-3.5,4.4-2.3,6.6-5.4,6.6-9.3s-.2-2.2-.5-3.3c-.3-1.1-1-2-1.9-2.8-.9-.8-2.2-1.5-3.8-2-1.6-.5-3.7-.8-6.3-.9l-12-.2ZM732.4,563.9c0-2.8-.5-5.3-1.5-7.3-1-2-2.3-3.6-3.9-4.8-1.6-1.2-3.4-2.1-5.4-2.6-2-.5-4-.8-6-.8s-4.1.3-6.1.9c-2,.6-3.9,1.5-5.5,2.7-1.6,1.2-2.9,2.8-4,4.8-1,2-1.5,4.4-1.5,7.1s.5,5.3,1.5,7.3c1,2,2.3,3.7,3.9,4.9,1.6,1.3,3.4,2.2,5.4,2.7,2,.6,4.1.9,6.1.9s4-.3,6-.9c2-.6,3.8-1.5,5.4-2.7,1.6-1.3,2.9-2.9,4-4.9,1-2,1.5-4.5,1.5-7.4Z" style="fill: #fff;"/>
      <path d="M793.3,574.2c0,4.4.5,8.2,1.5,11.3,1,3.1,2.4,5.7,4.1,7.8,1.7,2.1,3.9,3.6,6.3,4.6,2.5,1,5.2,1.5,8.1,1.5s6.8-.4,9.1-1.2c2.4-.8,4.3-1.6,5.7-2.3l2.7,5.4c-1.1.9-3.2,1.9-6,3-2.9,1.1-6.9,1.7-12,1.7-8.6,0-15.3-2.7-20-8.2-4.7-5.4-7.1-13.3-7.1-23.4s.6-9,1.9-12.9c1.3-3.9,3.1-7.3,5.4-10.1,2.4-2.8,5.2-5,8.5-6.5,3.3-1.5,7.1-2.3,11.3-2.3s4.8.2,6.8.6c2,.4,3.7.9,5.2,1.5,1.5.6,2.7,1.3,3.7,2,1,.7,1.8,1.3,2.4,1.8l-3.4,5.5c-1.1-.8-2.9-1.8-5.3-3-2.4-1.2-5.4-1.8-9.1-1.8-5.9,0-10.7,2.1-14.5,6.2-3.8,4.1-5.7,10.5-5.7,18.9Z" style="fill: #fff;"/>
      <path d="M866.6,542.5c4.6,0,8.7.8,12.1,2.4,3.5,1.6,6.3,3.8,8.7,6.6,2.3,2.8,4.1,6.1,5.2,10,1.2,3.9,1.8,8.1,1.8,12.7s-.6,8.9-1.8,12.8c-1.2,3.9-3,7.3-5.3,10.1-2.3,2.8-5.2,5-8.7,6.5-3.5,1.5-7.5,2.3-12,2.3s-8.6-.8-12.1-2.3c-3.5-1.5-6.4-3.7-8.7-6.5-2.3-2.8-4.1-6.2-5.2-10.1-1.2-3.9-1.8-8.2-1.8-12.8s.6-8.9,1.8-12.7c1.2-3.9,3-7.2,5.3-10,2.3-2.8,5.2-5,8.7-6.6,3.5-1.6,7.5-2.4,12-2.4ZM866.6,599.4c7,0,12.2-2.3,15.5-6.8,3.3-4.5,5-10.6,5-18.4s-1.7-13.6-5.1-18.2c-3.4-4.6-8.5-6.9-15.4-6.9s-11.9,2.3-15.3,6.9c-3.4,4.6-5.1,10.7-5.1,18.2s1.7,13.9,5,18.4c3.3,4.5,8.5,6.7,15.4,6.7Z" style="fill: #fff;"/>
      <path d="M915.5,544.1l.2,10.9c1.9-3.9,4.6-7,8.2-9.2,3.6-2.2,8-3.3,13.1-3.3s12.2,1.9,15.7,5.7c3.5,3.8,5.2,9.4,5.2,16.8v39.5h-7.2v-38.6c0-3.2-.4-5.9-1.2-8.1-.8-2.2-1.8-3.9-3.2-5.2-1.3-1.3-2.9-2.2-4.8-2.8-1.8-.6-3.8-.9-6-.9-3.3,0-6.2.8-8.7,2.3-2.5,1.5-4.5,3.5-6.2,5.9-1.6,2.4-2.8,5.1-3.7,8.1-.8,3-1.2,6.1-1.2,9.2v30.1h-7.2v-60.5h6.7Z" style="fill: #fff;"/>
      <path d="M980.9,544.1l.2,10.9c1.9-3.9,4.6-7,8.2-9.2,3.6-2.2,8-3.3,13.1-3.3s12.2,1.9,15.7,5.7c3.5,3.8,5.2,9.4,5.2,16.8v39.5h-7.2v-38.6c0-3.2-.4-5.9-1.2-8.1-.8-2.2-1.8-3.9-3.2-5.2-1.3-1.3-2.9-2.2-4.8-2.8-1.8-.6-3.8-.9-6-.9-3.3,0-6.2.8-8.7,2.3-2.5,1.5-4.5,3.5-6.2,5.9-1.6,2.4-2.8,5.1-3.7,8.1-.8,3-1.2,6.1-1.2,9.2v30.1h-7.2v-60.5h6.7Z" style="fill: #fff;"/>
      <path d="M1067.2,599.4c3.7,0,6.8-.4,9.4-1.2,2.6-.8,4.7-1.5,6.2-2.2l2.2,5.7c-1.2.8-3.5,1.7-6.7,2.7-3.3,1-7.2,1.5-11.8,1.5-9.8,0-17.2-2.7-22-8.2-4.8-5.5-7.2-13.3-7.2-23.4s.6-9.2,1.8-13.1c1.2-3.9,3-7.3,5.2-10.1,2.3-2.8,5.1-4.9,8.4-6.4,3.3-1.5,7-2.3,11.2-2.3s7.4.6,10.5,1.8c3.1,1.2,5.7,3.1,7.9,5.7,2.2,2.6,3.8,6,4.9,10.1,1.1,4.1,1.7,9.1,1.7,14.9v1.5h-44.4c.4,7.1,2.4,12.6,6,16.7,3.6,4.1,9.2,6.1,16.7,6.1ZM1081.7,570.3c-.4-6.8-2-12-4.6-15.7-2.7-3.7-7.1-5.6-13.3-5.6s-10.7,1.9-13.7,5.6c-3,3.7-4.8,9-5.5,15.7h37.1Z" style="fill: #fff;"/>
      <path d="M1108,574.2c0,4.4.5,8.2,1.5,11.3,1,3.1,2.4,5.7,4.1,7.8,1.7,2.1,3.9,3.6,6.3,4.6,2.5,1,5.2,1.5,8.1,1.5s6.8-.4,9.1-1.2c2.4-.8,4.3-1.6,5.7-2.3l2.7,5.4c-1.1.9-3.2,1.9-6,3-2.9,1.1-6.9,1.7-12,1.7-8.6,0-15.3-2.7-20-8.2-4.7-5.4-7.1-13.3-7.1-23.4s.6-9,1.9-12.9c1.3-3.9,3.1-7.3,5.4-10.1,2.4-2.8,5.2-5,8.5-6.5,3.3-1.5,7.1-2.3,11.3-2.3s4.8.2,6.8.6c2,.4,3.7.9,5.2,1.5,1.5.6,2.7,1.3,3.7,2,1,.7,1.8,1.3,2.4,1.8l-3.4,5.5c-1.1-.8-2.9-1.8-5.3-3-2.4-1.2-5.4-1.8-9.1-1.8-5.9,0-10.7,2.1-14.5,6.2-3.8,4.1-5.7,10.5-5.7,18.9Z" style="fill: #fff;"/>
      <path d="M1184.4,598.9c1.1,0,2.2,0,3.2-.1,1,0,1.8-.2,2.6-.4l.7,5.9c-.8.2-2,.5-3.7.7-1.6.2-3.4.4-5.4.4-6.5,0-11.1-1.5-13.8-4.6-2.7-3.1-4.1-7.4-4.1-12.9v-37.3h-12.6v-6.3h12.6v-17.8l7.2-2v19.8h18.4v6.3h-18.4v35.3c0,2.8.3,5,.9,6.7.6,1.7,1.4,3.1,2.6,4,1.1,1,2.5,1.6,4.2,2,1.7.3,3.6.5,5.7.5Z" style="fill: #fff;"/>
      <path d="M1200.4,523.8c0-1.8.5-3.2,1.5-4.3,1-1.1,2.3-1.6,4-1.6s3,.5,4,1.6c1.1,1.1,1.6,2.5,1.6,4.3s-.5,3.3-1.6,4.4c-1.1,1.1-2.4,1.6-4,1.6s-2.9-.5-4-1.6c-1-1.1-1.5-2.5-1.5-4.3ZM1202.3,544.1h7.2v60.5h-7.2v-60.5Z" style="fill: #fff;"/>
      <path d="M1242.3,604.6l-22.9-60.5h7.9l19.2,52.9,18.9-52.9h7.6l-22.8,60.5h-7.8Z" style="fill: #fff;"/>
      <path d="M1281,523.8c0-1.8.5-3.2,1.5-4.3,1-1.1,2.3-1.6,4-1.6s3,.5,4,1.6c1.1,1.1,1.6,2.5,1.6,4.3s-.5,3.3-1.6,4.4c-1.1,1.1-2.4,1.6-4,1.6s-2.9-.5-4-1.6c-1-1.1-1.5-2.5-1.5-4.3ZM1283,544.1h7.2v60.5h-7.2v-60.5Z" style="fill: #fff;"/>
      <path d="M1334.6,598.9c1.1,0,2.2,0,3.2-.1,1,0,1.8-.2,2.6-.4l.7,5.9c-.8.2-2,.5-3.7.7-1.6.2-3.4.4-5.4.4-6.5,0-11.1-1.5-13.8-4.6-2.7-3.1-4.1-7.4-4.1-12.9v-37.3h-12.6v-6.3h12.6v-17.8l7.2-2v19.8h18.4v6.3h-18.4v35.3c0,2.8.3,5,.9,6.7.6,1.7,1.4,3.1,2.6,4,1.1,1,2.5,1.6,4.2,2,1.7.3,3.6.5,5.7.5Z" style="fill: #fff;"/>
      <path d="M1344.8,544.1h8.3l19.2,48.8,19.5-48.8h7.9l-36.5,87.4h-7.6l12.6-29.8-23.4-57.6Z" style="fill: #fff;"/>
    </g>
    <g>
      <path d="M1192.1,12.1c-2.1,0-4,.3-5.6.9-1.7.6-3.2,1.4-4.5,2.3-1.4.9-2.5,1.9-3.5,3-1,1.1-1.8,2-2.4,2.9l-8.9-7.3c.7-1.1,1.8-2.5,3.2-4.1,1.4-1.6,3.2-3.1,5.3-4.6,2.1-1.5,4.6-2.7,7.5-3.7,2.9-1,6.1-1.5,9.6-1.5s7.7.6,10.6,1.8c2.9,1.2,5.3,2.8,7.1,4.7,1.8,1.9,3.2,4.2,4.1,6.6.9,2.5,1.3,4.9,1.3,7.3s-.5,5.5-1.4,7.8c-.9,2.4-2.1,4.6-3.6,6.6-1.5,2-3.3,3.9-5.3,5.7-2,1.7-4,3.4-6.2,5.1-4.9,3.7-8.6,7-11,9.9-2.4,3-3.7,5.4-3.7,7.2h31.8v12h-47.5v-1.4c0-4,.4-7.6,1.2-10.8.8-3.2,2-6.2,3.6-9.1,1.6-2.8,3.6-5.5,6.1-8,2.5-2.5,5.4-5,8.8-7.4,4-2.8,7.1-5.6,9.4-8.4,2.3-2.7,3.5-5.6,3.5-8.7s-.2-2.1-.5-3.2c-.3-1.1-.8-2.1-1.6-3-.7-.9-1.7-1.6-2.9-2.2-1.2-.6-2.7-.8-4.5-.8Z" style="fill: #fff;"/>
      <path d="M1280.8,38.1c0,12.2-2.3,21.6-7,28.2-4.7,6.6-11.7,9.9-21.1,9.9s-16.7-3.3-21.2-9.8c-4.6-6.5-6.9-16-6.9-28.3s2.3-21.3,7-28c4.7-6.6,11.7-9.9,21.1-9.9s16.5,3.3,21.1,9.9c4.7,6.6,7,15.9,7,28ZM1265.8,38.1c0-8.8-1-15.3-3.1-19.5-2.1-4.2-5.4-6.3-10-6.3s-7.9,2.1-10,6.3c-2.1,4.2-3.1,10.7-3.1,19.5s1,15.4,3.1,19.6c2,4.3,5.4,6.4,10.1,6.4s7.9-2.2,10-6.5c2.1-4.3,3.1-10.8,3.1-19.6Z" style="fill: #fff;"/>
      <path d="M1311.5,12.1c-2.1,0-4,.3-5.6.9-1.7.6-3.2,1.4-4.5,2.3-1.4.9-2.5,1.9-3.5,3-1,1.1-1.8,2-2.4,2.9l-8.9-7.3c.7-1.1,1.8-2.5,3.2-4.1,1.4-1.6,3.2-3.1,5.3-4.6,2.1-1.5,4.6-2.7,7.5-3.7,2.9-1,6.1-1.5,9.6-1.5s7.7.6,10.6,1.8c2.9,1.2,5.3,2.8,7.1,4.7,1.8,1.9,3.2,4.2,4.1,6.6.9,2.5,1.3,4.9,1.3,7.3s-.5,5.5-1.4,7.8c-.9,2.4-2.1,4.6-3.6,6.6-1.5,2-3.3,3.9-5.3,5.7-2,1.7-4,3.4-6.2,5.1-4.9,3.7-8.6,7-11,9.9-2.4,3-3.7,5.4-3.7,7.2h31.8v12h-47.5v-1.4c0-4,.4-7.6,1.2-10.8.8-3.2,2-6.2,3.6-9.1,1.6-2.8,3.6-5.5,6.1-8,2.5-2.5,5.4-5,8.8-7.4,4-2.8,7.1-5.6,9.4-8.4,2.3-2.7,3.5-5.6,3.5-8.7s-.2-2.1-.5-3.2c-.3-1.1-.8-2.1-1.6-3-.7-.9-1.7-1.6-2.9-2.2-1.2-.6-2.7-.8-4.5-.8Z" style="fill: #fff;"/>
      <path d="M1378.4,12.3c-5,0-9,1.7-12.1,5.1-3.1,3.4-5,8.4-5.7,14.9,1.7-2.1,3.9-3.7,6.7-4.8,2.8-1.1,5.7-1.7,8.6-1.7s5.7.5,8.4,1.5c2.7,1,5.1,2.5,7.2,4.5s3.7,4.5,5,7.6c1.2,3.1,1.9,6.6,1.9,10.6s-.7,8-2.2,11.2c-1.5,3.3-3.4,6-5.8,8.3-2.4,2.3-5.2,4-8.4,5.1-3.2,1.1-6.5,1.7-9.9,1.7-8,0-14.3-2.8-19-8.3-4.7-5.5-7-13.7-7-24.6s2.8-24.6,8.3-32c5.6-7.4,13.5-11.1,24-11.1s3.1.1,4.8.4c1.7.2,3.4.6,5,1,1.6.5,3.2,1,4.6,1.6,1.5.6,2.7,1.3,3.6,2.1l-5,10.4c-1.3-.6-3.1-1.4-5.2-2.2-2.2-.8-4.8-1.2-7.8-1.2ZM1384.1,51.7c0-4.6-1-8.1-3.1-10.6-2-2.5-4.8-3.7-8.4-3.7s-3.4.3-4.9,1c-1.5.7-2.7,1.6-3.8,2.8-1,1.2-1.8,2.6-2.4,4.1-.6,1.6-.8,3.2-.8,4.9s.2,3.9.7,5.6c.5,1.7,1.1,3.2,2.1,4.5.9,1.3,2.1,2.3,3.5,3.1,1.4.8,3.1,1.1,4.9,1.1s3.8-.3,5.3-1c1.5-.7,2.7-1.6,3.8-2.8,1-1.2,1.8-2.6,2.3-4.1.5-1.6.8-3.2.8-5.1Z" style="fill: #fff;"/>
    </g>
    <path d="M230.6,464.9l1154.1-4.9c2.7,0,4.9,2.2,4.9,4.9s-2.2,4.9-4.9,4.9c0,0-1154.1-4.9-1154.1-4.9h0Z" style="fill: #fff;"/>
  </g>
</svg>